<?xml version="1.0" encoding="utf-8"?>
<!-- Generator: Adobe Illustrator 21.1.0, SVG Export Plug-In . SVG Version: 6.00 Build 0)  -->
<!DOCTYPE svg PUBLIC "-//W3C//DTD SVG 1.1//EN" "http://www.w3.org/Graphics/SVG/1.1/DTD/svg11.dtd">
<svg version="1.1" id="Layer_1" xmlns="http://www.w3.org/2000/svg" xmlns:xlink="http://www.w3.org/1999/xlink" x="0px" y="0px"
	 width="90px" height="540px" viewBox="0 0 90 540" style="enable-background:new 0 0 90 540;" xml:space="preserve" preserveAspectRatio="none">
<style type="text/css">
	.st0{fill:#656668;}
	.st1{opacity:0.3;}
	.st2{fill:none;stroke:#000000;stroke-width:2;stroke-linecap:round;stroke-linejoin:round;stroke-miterlimit:10;}
	.st3{fill:none;stroke:#000000;stroke-width:1.9664;stroke-linecap:round;stroke-linejoin:round;stroke-miterlimit:10;}
	.st4{fill:none;stroke:#000000;stroke-width:2.75;stroke-linecap:round;stroke-linejoin:round;stroke-miterlimit:10;}
	.st5{fill:none;stroke:#000000;stroke-width:2.25;stroke-linecap:round;stroke-linejoin:round;stroke-miterlimit:10;}
	.st6{enable-background:new    ;}
	.st7{fill:none;stroke:#000000;stroke-width:1.5;stroke-linecap:round;stroke-linejoin:round;stroke-miterlimit:10;}
</style>
<g id="portrait">
	<rect id="bg_5_" y="450" class="st0" width="90" height="90"/>
	<g class="st1">
		<g>
			<line class="st2" x1="33.3" y1="515.4" x2="33.3" y2="506.9"/>
			<line class="st2" x1="56.7" y1="506.9" x2="56.7" y2="515.4"/>
		</g>
		<path class="st2" d="M44.9,473.6c-5.2,0-9.4,0.7-9.4,1.6v17.5c0,0.9,4.2,1.6,9.4,1.6s9.4-0.7,9.4-1.6v-17.5
			C54.2,474.3,50.1,473.6,44.9,473.6z"/>
		<g>
			<path class="st2" d="M23.5,513.9l4.1-9.9c1-2.9,3.6-4.8,6.7-5.1c2.9-0.2,6.8-0.5,10.7-0.5"/>
		</g>
		<g>
			<path class="st2" d="M66.5,513.9l-4.1-9.9c-1-2.9-3.6-4.8-6.7-5.1c-2.9-0.2-6.8-0.5-10.7-0.5"/>
		</g>
		<path class="st2" d="M23.5,513.9c0,0,9.8,2.5,21.5,2.5s21.5-2.5,21.5-2.5"/>
	</g>
</g>
<g id="unknown_1_">
	<rect id="bg_4_" y="360" class="st0" width="90" height="90"/>
	<g id="unknown" class="st1">
		<polyline class="st3" points="56.5,390.6 62.3,391.1 59.3,426 34.4,423.8 		"/>
		
			<rect x="29.2" y="385" transform="matrix(0.9962 -8.715437e-02 8.715437e-02 0.9962 -34.9211 5.1659)" class="st3" width="25" height="35"/>
		<g>
			<line class="st4" x1="42.7" y1="412.5" x2="42.7" y2="412.5"/>
			<path class="st5" d="M35.6,398.8c-0.3-3.2,2.1-6,5.3-6.3s6,2.1,6.3,5.3c0.4,5-5.4,5.2-5,10.2"/>
		</g>
	</g>
</g>
<g id="unavailable_1_">
	<rect id="bg_3_" y="270" class="st0" width="90" height="90"/>
	<g id="unavailable" class="st1">
		<polyline class="st2" points="32.5,293.5 28.5,293.5 28.5,297.5 		"/>
		<polyline class="st2" points="28.5,332.5 28.5,336.5 32.5,336.5 		"/>
		<line class="st2" x1="28.5" y1="301.8" x2="28.5" y2="307.8"/>
		<line class="st2" x1="28.5" y1="312" x2="28.5" y2="318"/>
		<line class="st2" x1="28.5" y1="322.2" x2="28.5" y2="328.2"/>
		<polyline class="st2" points="57.5,336.5 61.5,336.5 61.5,332.5 		"/>
		<line class="st2" x1="61.5" y1="328.2" x2="61.5" y2="322.2"/>
		<line class="st2" x1="61.5" y1="318" x2="61.5" y2="312"/>
		<line class="st2" x1="61.5" y1="307.8" x2="61.5" y2="303.8"/>
		<line class="st2" x1="36.8" y1="336.5" x2="42.8" y2="336.5"/>
		<line class="st2" x1="47.2" y1="336.5" x2="53.2" y2="336.5"/>
		<line class="st2" x1="36.8" y1="293.5" x2="42.8" y2="293.5"/>
		<line class="st2" x1="47.2" y1="293.5" x2="51.2" y2="293.5"/>
		<line class="st2" x1="51.4" y1="293.6" x2="54.9" y2="297.1"/>
		<line class="st2" x1="57.9" y1="300.1" x2="61.4" y2="303.6"/>
		<line class="st2" x1="51.2" y1="293.8" x2="51.2" y2="296.8"/>
		<line class="st2" x1="58.5" y1="303.8" x2="61.5" y2="303.8"/>
		<polyline class="st2" points="51.2,300.2 51.2,303.8 54.8,303.8 		"/>
		<g class="st6">
			<path d="M33.6,312.1h1.7l4.2,5.5v-5.5h1.8v8.7h-1.6l-4.3-5.7v5.7h-1.8V312.1z"/>
		</g>
		<g class="st6">
			<path d="M51.7,312.1h1.7l3.8,8.8h-1.9l-0.8-2h-3.8l-0.8,2h-1.9L51.7,312.1z M53.7,317.2l-1.2-3l-1.2,3H53.7z"/>
		</g>
		<line class="st7" x1="47.2" y1="312.3" x2="44.4" y2="320.7"/>
	</g>
</g>
<g id="unapproved_1_">
	<rect id="bg_2_" y="180" class="st0" width="90" height="90"/>
	<g id="unapproved" class="st1">
		<circle class="st2" cx="45" cy="228.8" r="10"/>
		<line class="st2" x1="38" y1="221.7" x2="52" y2="235.8"/>
		<polyline class="st2" points="32.5,203.5 28.5,203.5 28.5,207.5 		"/>
		<polyline class="st2" points="28.5,242.5 28.5,246.5 32.5,246.5 		"/>
		<line class="st2" x1="28.5" y1="211.8" x2="28.5" y2="217.8"/>
		<line class="st2" x1="28.5" y1="222" x2="28.5" y2="228"/>
		<line class="st2" x1="28.5" y1="232.2" x2="28.5" y2="238.2"/>
		<polyline class="st2" points="57.5,246.5 61.5,246.5 61.5,242.5 		"/>
		<line class="st2" x1="61.5" y1="238.2" x2="61.5" y2="232.2"/>
		<line class="st2" x1="61.5" y1="228" x2="61.5" y2="222"/>
		<line class="st2" x1="61.5" y1="217.8" x2="61.5" y2="213.8"/>
		<line class="st2" x1="36.8" y1="246.5" x2="42.8" y2="246.5"/>
		<line class="st2" x1="47.2" y1="246.5" x2="53.2" y2="246.5"/>
		<line class="st2" x1="36.8" y1="203.5" x2="42.8" y2="203.5"/>
		<line class="st2" x1="47.2" y1="203.5" x2="51.2" y2="203.5"/>
		<line class="st2" x1="51.4" y1="203.6" x2="54.9" y2="207.1"/>
		<line class="st2" x1="57.9" y1="210.1" x2="61.4" y2="213.6"/>
		<line class="st2" x1="51.2" y1="203.8" x2="51.2" y2="206.8"/>
		<line class="st2" x1="58.5" y1="213.8" x2="61.5" y2="213.8"/>
		<polyline class="st2" points="51.2,210.2 51.2,213.8 54.8,213.8 		"/>
	</g>
</g>
<g id="review_pending_1_">
	<rect id="bg_1_" y="90" class="st0" width="90" height="90"/>
	<g id="review_pending" class="st1">
		<polyline class="st2" points="51.9,151.5 28.6,151.5 28.6,113.5 61.1,113.5 61.1,131.5 		"/>
		<polygon class="st2" points="66.4,142.9 66.4,135.5 55.9,135.5 55.9,142.9 58.5,146 55.9,149 55.9,156.5 66.4,156.5 66.4,149 
			63.8,146 		"/>
		<line class="st2" x1="42.4" y1="121.5" x2="55.6" y2="121.5"/>
		<line class="st2" x1="42.4" y1="131.5" x2="55.6" y2="131.5"/>
		<line class="st2" x1="42.4" y1="141.5" x2="51.9" y2="141.5"/>
		<polyline class="st2" points="33.9,121 35.4,122.5 38.4,119.5 		"/>
		<g>
			<polygon points="63.4,142.8 58.9,142.8 61.1,145.2 			"/>
		</g>
		<g>
			<polygon points="61.1,150.2 57.9,152.2 57.9,154.5 64.4,154.5 64.4,152.2 			"/>
		</g>
		<rect x="33.9" y="129.2" class="st2" width="4.5" height="4.5"/>
		<rect x="33.9" y="139.2" class="st2" width="4.5" height="4.5"/>
	</g>
</g>
<g id="borken">
	<rect id="bg" class="st0" width="90" height="90"/>
	<g id="broken" class="st1">
		<polyline class="st2" points="51.2,23.5 51.2,33.8 61.5,33.8 		"/>
		<g>
			<polygon class="st2" points="28.5,48.9 28.5,66.5 61.5,66.5 61.5,53.8 50.5,48.8 39.5,53.8 28.5,48.8 			"/>
			<polygon class="st2" points="61.5,33.8 51.2,23.5 28.5,23.5 28.5,41 39.5,46 50.5,41 61.5,46 			"/>
		</g>
	</g>
</g>
</svg>
